<mxfile host="app.diagrams.net" modified="2023-05-12T00:57:11.243Z" agent="Mozilla/5.0 (Windows NT 10.0; Win64; x64) AppleWebKit/537.36 (KHTML, like Gecko) Chrome/113.0.0.0 Safari/537.36" etag="2F-KMzMoSvqQbUAZEUNN" version="21.1.8" type="github">
  <diagram name="페이지-1" id="K-Aqao7YXIn50Upvbfja">
    <mxGraphModel dx="2165" dy="725" grid="1" gridSize="10" guides="1" tooltips="1" connect="1" arrows="1" fold="1" page="1" pageScale="1" pageWidth="827" pageHeight="1169" math="0" shadow="0">
      <root>
        <mxCell id="0" />
        <mxCell id="1" parent="0" />
        <mxCell id="qn2qaFdiB9YZbY8v9Jkf-2" value="Q1" style="shape=step;perimeter=stepPerimeter;whiteSpace=wrap;html=1;fixedSize=1;" vertex="1" parent="1">
          <mxGeometry x="110" y="340" width="200" height="50" as="geometry" />
        </mxCell>
        <mxCell id="qn2qaFdiB9YZbY8v9Jkf-26" value="Jan" style="rounded=0;whiteSpace=wrap;html=1;" vertex="1" parent="1">
          <mxGeometry x="110" y="390" width="60" height="20" as="geometry" />
        </mxCell>
        <mxCell id="qn2qaFdiB9YZbY8v9Jkf-29" value="Feb" style="rounded=0;whiteSpace=wrap;html=1;" vertex="1" parent="1">
          <mxGeometry x="170" y="390" width="60" height="20" as="geometry" />
        </mxCell>
        <mxCell id="qn2qaFdiB9YZbY8v9Jkf-30" value="Mar" style="rounded=0;whiteSpace=wrap;html=1;" vertex="1" parent="1">
          <mxGeometry x="230" y="390" width="60" height="20" as="geometry" />
        </mxCell>
        <mxCell id="qn2qaFdiB9YZbY8v9Jkf-43" value="Q2" style="shape=step;perimeter=stepPerimeter;whiteSpace=wrap;html=1;fixedSize=1;" vertex="1" parent="1">
          <mxGeometry x="290" y="340" width="200" height="50" as="geometry" />
        </mxCell>
        <mxCell id="qn2qaFdiB9YZbY8v9Jkf-44" value="Apr" style="rounded=0;whiteSpace=wrap;html=1;" vertex="1" parent="1">
          <mxGeometry x="290" y="390" width="60" height="20" as="geometry" />
        </mxCell>
        <mxCell id="qn2qaFdiB9YZbY8v9Jkf-45" value="May" style="rounded=0;whiteSpace=wrap;html=1;" vertex="1" parent="1">
          <mxGeometry x="350" y="390" width="60" height="20" as="geometry" />
        </mxCell>
        <mxCell id="qn2qaFdiB9YZbY8v9Jkf-46" value="Jun" style="rounded=0;whiteSpace=wrap;html=1;" vertex="1" parent="1">
          <mxGeometry x="410" y="390" width="60" height="20" as="geometry" />
        </mxCell>
        <mxCell id="qn2qaFdiB9YZbY8v9Jkf-47" value="Q3" style="shape=step;perimeter=stepPerimeter;whiteSpace=wrap;html=1;fixedSize=1;" vertex="1" parent="1">
          <mxGeometry x="470" y="340" width="200" height="50" as="geometry" />
        </mxCell>
        <mxCell id="qn2qaFdiB9YZbY8v9Jkf-48" value="Jul" style="rounded=0;whiteSpace=wrap;html=1;" vertex="1" parent="1">
          <mxGeometry x="470" y="390" width="60" height="20" as="geometry" />
        </mxCell>
        <mxCell id="qn2qaFdiB9YZbY8v9Jkf-49" value="Aug" style="rounded=0;whiteSpace=wrap;html=1;" vertex="1" parent="1">
          <mxGeometry x="530" y="390" width="60" height="20" as="geometry" />
        </mxCell>
        <mxCell id="qn2qaFdiB9YZbY8v9Jkf-50" value="Sep" style="rounded=0;whiteSpace=wrap;html=1;" vertex="1" parent="1">
          <mxGeometry x="590" y="390" width="60" height="20" as="geometry" />
        </mxCell>
        <mxCell id="qn2qaFdiB9YZbY8v9Jkf-51" value="Q4" style="shape=step;perimeter=stepPerimeter;whiteSpace=wrap;html=1;fixedSize=1;" vertex="1" parent="1">
          <mxGeometry x="650" y="340" width="200" height="50" as="geometry" />
        </mxCell>
        <mxCell id="qn2qaFdiB9YZbY8v9Jkf-52" value="Ocr" style="rounded=0;whiteSpace=wrap;html=1;" vertex="1" parent="1">
          <mxGeometry x="650" y="390" width="60" height="20" as="geometry" />
        </mxCell>
        <mxCell id="qn2qaFdiB9YZbY8v9Jkf-53" value="Nov" style="rounded=0;whiteSpace=wrap;html=1;" vertex="1" parent="1">
          <mxGeometry x="710" y="390" width="60" height="20" as="geometry" />
        </mxCell>
        <mxCell id="qn2qaFdiB9YZbY8v9Jkf-54" value="Dec" style="rounded=0;whiteSpace=wrap;html=1;" vertex="1" parent="1">
          <mxGeometry x="770" y="390" width="60" height="20" as="geometry" />
        </mxCell>
        <mxCell id="qn2qaFdiB9YZbY8v9Jkf-55" value="Q1" style="shape=step;perimeter=stepPerimeter;whiteSpace=wrap;html=1;fixedSize=1;" vertex="1" parent="1">
          <mxGeometry x="830" y="340" width="200" height="50" as="geometry" />
        </mxCell>
        <mxCell id="qn2qaFdiB9YZbY8v9Jkf-56" value="Jan" style="rounded=0;whiteSpace=wrap;html=1;" vertex="1" parent="1">
          <mxGeometry x="830" y="390" width="60" height="20" as="geometry" />
        </mxCell>
        <mxCell id="qn2qaFdiB9YZbY8v9Jkf-57" value="Feb" style="rounded=0;whiteSpace=wrap;html=1;" vertex="1" parent="1">
          <mxGeometry x="890" y="390" width="60" height="20" as="geometry" />
        </mxCell>
        <mxCell id="qn2qaFdiB9YZbY8v9Jkf-58" value="Mar" style="rounded=0;whiteSpace=wrap;html=1;" vertex="1" parent="1">
          <mxGeometry x="950" y="390" width="60" height="20" as="geometry" />
        </mxCell>
        <mxCell id="qn2qaFdiB9YZbY8v9Jkf-59" value="Q2" style="shape=step;perimeter=stepPerimeter;whiteSpace=wrap;html=1;fixedSize=1;" vertex="1" parent="1">
          <mxGeometry x="1010" y="340" width="200" height="50" as="geometry" />
        </mxCell>
        <mxCell id="qn2qaFdiB9YZbY8v9Jkf-60" value="Apr" style="rounded=0;whiteSpace=wrap;html=1;" vertex="1" parent="1">
          <mxGeometry x="1010" y="390" width="60" height="20" as="geometry" />
        </mxCell>
        <mxCell id="qn2qaFdiB9YZbY8v9Jkf-61" value="May" style="rounded=0;whiteSpace=wrap;html=1;" vertex="1" parent="1">
          <mxGeometry x="1070" y="390" width="60" height="20" as="geometry" />
        </mxCell>
        <mxCell id="qn2qaFdiB9YZbY8v9Jkf-62" value="Jun" style="rounded=0;whiteSpace=wrap;html=1;" vertex="1" parent="1">
          <mxGeometry x="1130" y="390" width="60" height="20" as="geometry" />
        </mxCell>
        <mxCell id="qn2qaFdiB9YZbY8v9Jkf-63" value="Q3" style="shape=step;perimeter=stepPerimeter;whiteSpace=wrap;html=1;fixedSize=1;" vertex="1" parent="1">
          <mxGeometry x="1190" y="340" width="200" height="50" as="geometry" />
        </mxCell>
        <mxCell id="qn2qaFdiB9YZbY8v9Jkf-64" value="Jul" style="rounded=0;whiteSpace=wrap;html=1;" vertex="1" parent="1">
          <mxGeometry x="1190" y="390" width="60" height="20" as="geometry" />
        </mxCell>
        <mxCell id="qn2qaFdiB9YZbY8v9Jkf-65" value="Aug" style="rounded=0;whiteSpace=wrap;html=1;" vertex="1" parent="1">
          <mxGeometry x="1250" y="390" width="60" height="20" as="geometry" />
        </mxCell>
        <mxCell id="qn2qaFdiB9YZbY8v9Jkf-66" value="Sep" style="rounded=0;whiteSpace=wrap;html=1;" vertex="1" parent="1">
          <mxGeometry x="1310" y="390" width="60" height="20" as="geometry" />
        </mxCell>
        <mxCell id="qn2qaFdiB9YZbY8v9Jkf-67" value="Q4" style="shape=step;perimeter=stepPerimeter;whiteSpace=wrap;html=1;fixedSize=1;" vertex="1" parent="1">
          <mxGeometry x="1370" y="340" width="200" height="50" as="geometry" />
        </mxCell>
        <mxCell id="qn2qaFdiB9YZbY8v9Jkf-68" value="Ocr" style="rounded=0;whiteSpace=wrap;html=1;" vertex="1" parent="1">
          <mxGeometry x="1370" y="390" width="60" height="20" as="geometry" />
        </mxCell>
        <mxCell id="qn2qaFdiB9YZbY8v9Jkf-69" value="Nov" style="rounded=0;whiteSpace=wrap;html=1;" vertex="1" parent="1">
          <mxGeometry x="1430" y="390" width="60" height="20" as="geometry" />
        </mxCell>
        <mxCell id="qn2qaFdiB9YZbY8v9Jkf-70" value="Dec" style="rounded=0;whiteSpace=wrap;html=1;" vertex="1" parent="1">
          <mxGeometry x="1490" y="390" width="60" height="20" as="geometry" />
        </mxCell>
        <mxCell id="qn2qaFdiB9YZbY8v9Jkf-71" value="" style="rounded=0;whiteSpace=wrap;html=1;" vertex="1" parent="1">
          <mxGeometry x="110" y="410" width="180" height="130" as="geometry" />
        </mxCell>
        <mxCell id="qn2qaFdiB9YZbY8v9Jkf-72" value="" style="rounded=0;whiteSpace=wrap;html=1;" vertex="1" parent="1">
          <mxGeometry x="290" y="410" width="180" height="130" as="geometry" />
        </mxCell>
        <mxCell id="qn2qaFdiB9YZbY8v9Jkf-73" value="" style="rounded=0;whiteSpace=wrap;html=1;" vertex="1" parent="1">
          <mxGeometry x="470" y="410" width="180" height="130" as="geometry" />
        </mxCell>
        <mxCell id="qn2qaFdiB9YZbY8v9Jkf-74" value="" style="rounded=0;whiteSpace=wrap;html=1;" vertex="1" parent="1">
          <mxGeometry x="650" y="410" width="180" height="130" as="geometry" />
        </mxCell>
        <mxCell id="qn2qaFdiB9YZbY8v9Jkf-75" value="" style="rounded=0;whiteSpace=wrap;html=1;" vertex="1" parent="1">
          <mxGeometry x="830" y="410" width="180" height="130" as="geometry" />
        </mxCell>
        <mxCell id="qn2qaFdiB9YZbY8v9Jkf-76" value="" style="rounded=0;whiteSpace=wrap;html=1;" vertex="1" parent="1">
          <mxGeometry x="1010" y="410" width="180" height="130" as="geometry" />
        </mxCell>
        <mxCell id="qn2qaFdiB9YZbY8v9Jkf-77" value="" style="rounded=0;whiteSpace=wrap;html=1;" vertex="1" parent="1">
          <mxGeometry x="1190" y="410" width="180" height="130" as="geometry" />
        </mxCell>
        <mxCell id="qn2qaFdiB9YZbY8v9Jkf-78" value="" style="rounded=0;whiteSpace=wrap;html=1;" vertex="1" parent="1">
          <mxGeometry x="1370" y="410" width="180" height="130" as="geometry" />
        </mxCell>
        <mxCell id="qn2qaFdiB9YZbY8v9Jkf-79" value="Abingdon Ready" style="rounded=1;whiteSpace=wrap;html=1;fillColor=#f8cecc;strokeColor=#b85450;" vertex="1" parent="1">
          <mxGeometry x="355" y="460" width="55" height="55" as="geometry" />
        </mxCell>
        <mxCell id="qn2qaFdiB9YZbY8v9Jkf-80" value="Verification Abingdon 2 month" style="rounded=1;whiteSpace=wrap;html=1;" vertex="1" parent="1">
          <mxGeometry x="410" y="460" width="120" height="55" as="geometry" />
        </mxCell>
        <mxCell id="qn2qaFdiB9YZbY8v9Jkf-86" value="Project Plan" style="text;html=1;strokeColor=none;fillColor=none;align=center;verticalAlign=middle;whiteSpace=wrap;rounded=0;spacing=2;fontStyle=1;fontSize=15;" vertex="1" parent="1">
          <mxGeometry x="-20" y="440" width="90" height="60" as="geometry" />
        </mxCell>
        <mxCell id="qn2qaFdiB9YZbY8v9Jkf-87" value="Software Plan" style="text;html=1;strokeColor=none;fillColor=none;align=center;verticalAlign=middle;whiteSpace=wrap;rounded=0;spacing=2;fontStyle=1;fontSize=15;" vertex="1" parent="1">
          <mxGeometry x="-40" y="584" width="110" height="60" as="geometry" />
        </mxCell>
        <mxCell id="qn2qaFdiB9YZbY8v9Jkf-88" value="Gate 5&lt;br&gt;A" style="rounded=1;whiteSpace=wrap;html=1;fillColor=#dae8fc;strokeColor=#6c8ebf;" vertex="1" parent="1">
          <mxGeometry x="590" y="460" width="55" height="55" as="geometry" />
        </mxCell>
        <mxCell id="qn2qaFdiB9YZbY8v9Jkf-89" value="Gate 5&lt;br&gt;B" style="rounded=1;whiteSpace=wrap;html=1;fillColor=#dae8fc;strokeColor=#6c8ebf;" vertex="1" parent="1">
          <mxGeometry x="952.5" y="460" width="55" height="55" as="geometry" />
        </mxCell>
        <mxCell id="qn2qaFdiB9YZbY8v9Jkf-92" value="" style="edgeStyle=orthogonalEdgeStyle;rounded=0;orthogonalLoop=1;jettySize=auto;html=1;" edge="1" parent="1" source="qn2qaFdiB9YZbY8v9Jkf-90" target="qn2qaFdiB9YZbY8v9Jkf-88">
          <mxGeometry relative="1" as="geometry">
            <Array as="points">
              <mxPoint x="618" y="435" />
            </Array>
          </mxGeometry>
        </mxCell>
        <mxCell id="qn2qaFdiB9YZbY8v9Jkf-90" value="In case of Lam order&lt;br&gt;With Beckoff PLC" style="text;html=1;strokeColor=none;fillColor=none;align=center;verticalAlign=middle;whiteSpace=wrap;rounded=0;" vertex="1" parent="1">
          <mxGeometry x="460" y="420" width="140" height="30" as="geometry" />
        </mxCell>
        <mxCell id="qn2qaFdiB9YZbY8v9Jkf-97" style="edgeStyle=orthogonalEdgeStyle;rounded=0;orthogonalLoop=1;jettySize=auto;html=1;entryX=0.5;entryY=0;entryDx=0;entryDy=0;" edge="1" parent="1" source="qn2qaFdiB9YZbY8v9Jkf-93" target="qn2qaFdiB9YZbY8v9Jkf-89">
          <mxGeometry relative="1" as="geometry" />
        </mxCell>
        <mxCell id="qn2qaFdiB9YZbY8v9Jkf-93" value="In case of no Lam order&lt;br&gt;With Abingdon PLC" style="text;html=1;strokeColor=none;fillColor=none;align=center;verticalAlign=middle;whiteSpace=wrap;rounded=0;" vertex="1" parent="1">
          <mxGeometry x="810" y="420" width="140" height="30" as="geometry" />
        </mxCell>
        <mxCell id="qn2qaFdiB9YZbY8v9Jkf-98" value="" style="rounded=0;whiteSpace=wrap;html=1;" vertex="1" parent="1">
          <mxGeometry x="110" y="540" width="180" height="130" as="geometry" />
        </mxCell>
        <mxCell id="qn2qaFdiB9YZbY8v9Jkf-99" value="" style="rounded=0;whiteSpace=wrap;html=1;" vertex="1" parent="1">
          <mxGeometry x="290" y="540" width="180" height="130" as="geometry" />
        </mxCell>
        <mxCell id="qn2qaFdiB9YZbY8v9Jkf-100" value="" style="rounded=0;whiteSpace=wrap;html=1;" vertex="1" parent="1">
          <mxGeometry x="470" y="540" width="180" height="130" as="geometry" />
        </mxCell>
        <mxCell id="qn2qaFdiB9YZbY8v9Jkf-101" value="" style="rounded=0;whiteSpace=wrap;html=1;" vertex="1" parent="1">
          <mxGeometry x="650" y="540" width="180" height="130" as="geometry" />
        </mxCell>
        <mxCell id="qn2qaFdiB9YZbY8v9Jkf-102" value="" style="rounded=0;whiteSpace=wrap;html=1;" vertex="1" parent="1">
          <mxGeometry x="830" y="540" width="180" height="130" as="geometry" />
        </mxCell>
        <mxCell id="qn2qaFdiB9YZbY8v9Jkf-103" value="" style="rounded=0;whiteSpace=wrap;html=1;" vertex="1" parent="1">
          <mxGeometry x="1010" y="540" width="180" height="130" as="geometry" />
        </mxCell>
        <mxCell id="qn2qaFdiB9YZbY8v9Jkf-104" value="" style="rounded=0;whiteSpace=wrap;html=1;" vertex="1" parent="1">
          <mxGeometry x="1190" y="540" width="180" height="130" as="geometry" />
        </mxCell>
        <mxCell id="qn2qaFdiB9YZbY8v9Jkf-105" value="Software porting" style="rounded=1;whiteSpace=wrap;html=1;" vertex="1" parent="1">
          <mxGeometry x="359" y="560" width="110" height="33" as="geometry" />
        </mxCell>
        <mxCell id="qn2qaFdiB9YZbY8v9Jkf-107" value="Software Verification" style="rounded=1;whiteSpace=wrap;html=1;" vertex="1" parent="1">
          <mxGeometry x="470" y="560" width="60" height="33" as="geometry" />
        </mxCell>
      </root>
    </mxGraphModel>
  </diagram>
</mxfile>
